<?xml version="1.0" encoding="utf-8"?>
<!-- Generator: Adobe Illustrator 25.2.3, SVG Export Plug-In . SVG Version: 6.00 Build 0)  -->
<svg version="1.1" id="Layer_1" xmlns="http://www.w3.org/2000/svg" xmlns:xlink="http://www.w3.org/1999/xlink" x="0px" y="0px"
	 viewBox="0 0 1443.76 274.11" style="enable-background:new 0 0 1443.76 274.11;" xml:space="preserve">
<style type="text/css">
	.st0{fill:#FFFFFF;}
	.st1{fill:#F05452;}
	.st2{fill:#FFFFFF;stroke:#FFFFFF;stroke-width:2;stroke-miterlimit:10;}
	.st3{fill:#FFFFFF;stroke:#FFFFFF;stroke-width:5;stroke-miterlimit:10;}
	.st4{fill:#FFFFFF;stroke:#FFFFFF;stroke-width:8;stroke-miterlimit:10;}
	.st5{fill:#FFFFFF;stroke:#FFFFFF;stroke-width:11;stroke-miterlimit:10;}
	.st6{fill:#FFFFFF;stroke:#FFFFFF;stroke-width:14;stroke-miterlimit:10;}
	.st7{fill:#FFFFFF;stroke:#FFFFFF;stroke-width:17;stroke-miterlimit:10;}
	.st8{fill:#FFFFFF;stroke:#FFFFFF;stroke-width:20;stroke-miterlimit:10;}
	.st9{fill:#FFFFFF;stroke:#FFFFFF;stroke-width:23;stroke-miterlimit:10;}
</style>
<g>
	<rect x="77.03" y="87.42" class="st0" width="104.07" height="109.76"/>
	<path class="st1" d="M0.1,137.09c0-21.48,0.07-42.97-0.07-64.45c-0.02-3.2,0.8-5.04,3.74-6.68c38.36-21.44,76.67-43,114.9-64.67
		c3.19-1.81,5.5-1.66,8.61,0.1c38.1,21.58,76.25,43.05,114.47,64.42c3.05,1.71,4.02,3.61,4.01,7.03
		c-0.12,42.8-0.11,85.61-0.01,128.41c0.01,3.37-0.87,5.33-3.96,7.06c-38.22,21.36-76.38,42.82-114.46,64.43
		c-3.39,1.93-5.78,1.75-9.06-0.11c-37.95-21.51-75.95-42.9-114.03-64.17c-3.23-1.8-4.27-3.79-4.24-7.41
		C0.19,179.72,0.1,158.4,0.1,137.09z M93.77,136.8c0,12.15-0.04,24.3,0.02,36.45c0.03,5.97,2.73,7.6,7.83,4.71
		c21.28-12.06,42.54-24.15,63.78-36.28c5.08-2.9,5.09-6.33,0.03-9.22c-21.24-12.13-42.5-24.22-63.78-36.28
		c-5.11-2.9-7.83-1.29-7.86,4.66C93.73,112.83,93.76,124.81,93.77,136.8z"/>
</g>
<path id="S" class="st2" d="M339.57,210.74c-7.26-3.52-12.87-8.17-16.83-13.97c-3.47-5.07-5.7-10.51-6.69-16.31
	c-0.22-1.31,0.79-2.5,2.12-2.5h0.13c1.01,0,1.9,0.71,2.09,1.7c0.87,4.57,2.65,9.13,5.33,13.7c3.01,5.14,7.77,9.54,14.3,13.2
	c6.52,3.67,14.92,5.5,25.19,5.5c8.21,0,15.47-1.57,21.78-4.73c6.3-3.15,11.14-7.37,14.52-12.65c3.37-5.28,5.06-11.14,5.06-17.6
	c0-8.36-1.91-14.99-5.72-19.91c-3.82-4.91-8.55-8.54-14.19-10.89c-5.65-2.34-13.24-4.76-22.77-7.26
	c-9.97-2.64-17.97-5.28-23.98-7.92c-6.02-2.64-11.11-6.71-15.29-12.21s-6.27-12.94-6.27-22.33c0-6.74,1.87-13.09,5.61-19.03
	c3.74-5.94,9.09-10.67,16.06-14.19c6.96-3.52,14.92-5.28,23.87-5.28c9.09,0,16.94,1.62,23.54,4.84c6.6,3.23,11.77,7.3,15.51,12.21
	c3.11,4.08,5.32,8.34,6.66,12.77c0.41,1.36-0.64,2.74-2.06,2.74l0,0c-0.93,0-1.76-0.6-2.03-1.49c-1.14-3.77-3.13-7.6-5.98-11.49
	c-3.23-4.4-7.85-8.1-13.86-11.11c-6.02-3-13.28-4.51-21.78-4.51c-7.48,0-14.34,1.43-20.57,4.29s-11.22,6.9-14.96,12.1
	c-3.74,5.21-5.61,11.26-5.61,18.15c0,8.51,1.94,15.29,5.83,20.35c3.88,5.06,8.69,8.8,14.41,11.22c5.72,2.42,13.34,4.88,22.88,7.37
	c9.97,2.64,17.93,5.25,23.87,7.81c5.94,2.57,10.96,6.53,15.07,11.88c4.11,5.36,6.16,12.65,6.16,21.89c0,6.46-1.72,12.69-5.17,18.7
	c-3.45,6.02-8.62,10.89-15.51,14.63s-15.26,5.61-25.08,5.61C355.37,216.02,346.83,214.26,339.57,210.74z"/>
<path id="T" class="st3" d="M544.26,61.58L544.26,61.58c0,1.09-0.89,1.98-1.98,1.98h-41.14c-1.09,0-1.98,0.89-1.98,1.98V212.5
	c0,1.09-0.89,1.98-1.98,1.98h-0.44c-1.09,0-1.98-0.89-1.98-1.98V65.54c0-1.09-0.89-1.98-1.98-1.98h-41.14
	c-1.09,0-1.98-0.89-1.98-1.98l0,0c0-1.09,0.89-1.98,1.98-1.98h90.64C543.37,59.6,544.26,60.49,544.26,61.58z"/>
<path id="R" class="st4" d="M674.71,213.43l-40.07-65.44c-0.4-0.65-1.11-1.05-1.88-1.05h-2.95h-32.56c-1.21,0-2.2,0.98-2.2,2.2
	v63.14c0,1.21-0.98,2.2-2.2,2.2l0,0c-1.21,0-2.2-0.98-2.2-2.2V61.8c0-1.21,0.98-2.2,2.2-2.2h36.52c17.01,0,29.66,3.89,37.95,11.66
	c8.28,7.78,12.43,18.41,12.43,31.9c0,12.47-3.52,22.44-10.56,29.92c-6.43,6.84-15.38,11.16-26.83,12.97
	c-1.55,0.25-2.36,1.98-1.54,3.32l37.97,61.76c0.9,1.47-0.15,3.35-1.87,3.35h-0.33C675.82,214.48,675.11,214.08,674.71,213.43z
	 M629.82,142.76c15.1,0,26.43-3.59,33.99-10.78c7.55-7.18,11.33-16.79,11.33-28.82c0-26.1-15.25-39.16-45.76-39.16h-32.12
	c-1.21,0-2.2,0.98-2.2,2.2v74.36c0,1.21,0.98,2.2,2.2,2.2H629.82z"/>
<path id="E" class="st5" d="M736.05,65.54v67.54c0,1.09,0.89,1.98,1.98,1.98h60.72c1.09,0,1.98,0.89,1.98,1.98l0,0
	c0,1.09-0.89,1.98-1.98,1.98h-60.72c-1.09,0-1.98,0.89-1.98,1.98v67.54c0,1.09,0.89,1.98,1.98,1.98h67.32
	c1.09,0,1.98,0.89,1.98,1.98l0,0c0,1.09-0.89,1.98-1.98,1.98h-71.72c-1.09,0-1.98-0.89-1.98-1.98V61.58c0-1.09,0.89-1.98,1.98-1.98
	h71.72c1.09,0,1.98,0.89,1.98,1.98l0,0c0,1.09-0.89,1.98-1.98,1.98h-67.32C736.94,63.56,736.05,64.45,736.05,65.54z"/>
<path id="A" class="st6" d="M944.5,169.49h-73.3c-0.98,0-1.86,0.6-2.21,1.52l-15.12,39.64c-0.35,0.92-1.23,1.52-2.21,1.52l0,0
	c-1.66,0-2.8-1.66-2.21-3.2l55.61-145.54c0.35-0.91,1.23-1.52,2.21-1.52h1.15c0.98,0,1.86,0.61,2.21,1.52l55.4,145.54
	c0.59,1.55-0.55,3.2-2.21,3.2l0,0c-0.98,0-1.86-0.61-2.21-1.53l-14.91-39.62C946.36,170.1,945.48,169.49,944.5,169.49z
	 M943.37,162.33l-33.32-87.58c-0.77-2.03-3.64-2.03-4.41,0l-33.31,87.58c-0.59,1.55,0.55,3.2,2.21,3.2h66.63
	C942.82,165.53,943.96,163.88,943.37,162.33z"/>
<path id="M" class="st7" d="M1153.79,64v146.08c0,1.21-0.98,2.2-2.2,2.2l0,0c-1.21,0-2.2-0.98-2.2-2.2V82.92
	c0-2.37-3.24-3.06-4.21-0.9l-57.47,128.95c-0.35,0.79-1.14,1.3-2.01,1.3h-1.55c-0.87,0-1.65-0.51-2.01-1.3l-57.68-128.98
	c-0.97-2.17-4.21-1.47-4.21,0.9v127.19c0,1.21-0.98,2.2-2.2,2.2l0,0c-1.21,0-2.2-0.98-2.2-2.2V64c0-1.21,0.98-2.2,2.2-2.2h0.77
	c0.87,0,1.65,0.51,2.01,1.3l62.09,138.95c0.78,1.74,3.24,1.74,4.02,0l61.87-138.95c0.35-0.79,1.14-1.3,2.01-1.3h0.77
	C1152.81,61.8,1153.79,62.79,1153.79,64z"/>
<path id="E_1_" class="st8" d="M1218.89,65.54v67.54c0,1.09,0.89,1.98,1.98,1.98h60.72c1.09,0,1.98,0.89,1.98,1.98l0,0
	c0,1.09-0.89,1.98-1.98,1.98h-60.72c-1.09,0-1.98,0.89-1.98,1.98v67.54c0,1.09,0.89,1.98,1.98,1.98h67.32
	c1.09,0,1.98,0.89,1.98,1.98l0,0c0,1.09-0.89,1.98-1.98,1.98h-71.72c-1.09,0-1.98-0.89-1.98-1.98V61.58c0-1.09,0.89-1.98,1.98-1.98
	h71.72c1.09,0,1.98,0.89,1.98,1.98l0,0c0,1.09-0.89,1.98-1.98,1.98h-67.32C1219.78,63.56,1218.89,64.45,1218.89,65.54z"/>
<path id="R_1_" class="st9" d="M1427.22,213.43l-40.07-65.44c-0.4-0.65-1.11-1.05-1.88-1.05h-2.95h-32.56c-1.21,0-2.2,0.98-2.2,2.2
	v63.14c0,1.21-0.98,2.2-2.2,2.2l0,0c-1.21,0-2.2-0.98-2.2-2.2V61.8c0-1.21,0.98-2.2,2.2-2.2h36.52c17.01,0,29.66,3.89,37.95,11.66
	c8.28,7.78,12.43,18.41,12.43,31.9c0,12.47-3.52,22.44-10.56,29.92c-6.43,6.84-15.38,11.16-26.83,12.97
	c-1.55,0.25-2.36,1.98-1.54,3.32l37.97,61.76c0.9,1.47-0.15,3.35-1.87,3.35h-0.33C1428.34,214.48,1427.62,214.08,1427.22,213.43z
	 M1382.33,142.76c15.1,0,26.43-3.59,33.99-10.78c7.55-7.18,11.33-16.79,11.33-28.82c0-26.1-15.25-39.16-45.76-39.16h-32.12
	c-1.21,0-2.2,0.98-2.2,2.2v74.36c0,1.21,0.98,2.2,2.2,2.2H1382.33z"/>
</svg>
