<?xml version="1.0" encoding="utf-8"?>
<!-- Generator: Adobe Illustrator 26.3.1, SVG Export Plug-In . SVG Version: 6.00 Build 0)  -->
<svg version="1.1" id="Layer_1" xmlns="http://www.w3.org/2000/svg" xmlns:xlink="http://www.w3.org/1999/xlink" x="0px" y="0px"
	 viewBox="0 0 1657.3 255.2" style="enable-background:new 0 0 1657.3 255.2;" xml:space="preserve">
<style type="text/css">
	.st0{fill:#FFFFFF;}
	.st1{fill:#F05452;}
	.st2{opacity:0.2;}
</style>
<path class="st0" d="M44.2,208.5c-13.7-7.9-24.5-18.9-32.4-33C3.9,161.3,0,145.4,0,127.5s3.9-33.8,11.8-48
	c7.9-14.1,18.7-25.1,32.4-33S73.1,34.7,90,34.7c17,0,32.3,3.9,46,11.8s24.4,18.9,32.2,33s11.7,30.1,11.7,48s-3.9,33.8-11.7,48
	c-7.8,14.1-18.5,25.1-32.2,33s-29,11.8-46,11.8C73.1,220.3,57.9,216.4,44.2,208.5z M126.4,195.1c10.7-6.2,19.2-15.2,25.5-26.9
	c6.2-11.7,9.4-25.3,9.4-40.7s-3.1-28.9-9.4-40.6c-6.2-11.6-14.7-20.5-25.5-26.8c-10.7-6.2-22.9-9.4-36.4-9.4s-25.7,3.1-36.4,9.4
	c-10.8,6.3-19.3,15.2-25.5,26.8s-9.4,25.1-9.4,40.6c0,15.4,3.1,29,9.4,40.7c6.2,11.7,14.7,20.7,25.5,26.9
	c10.7,6.2,22.9,9.4,36.4,9.4S115.6,201.3,126.4,195.1z"/>
<path class="st0" d="M318.8,47.5c14.4,7.3,25.4,17.8,33,31.5s11.4,30,11.4,48.9c0,18.7-3.8,34.9-11.4,48.5s-18.6,24-33,31.2
	s-31.6,10.8-51.7,10.8h-53.8V36.6H267C287.1,36.6,304.4,40.3,318.8,47.5z M324.9,183.4c13.3-13.3,19.9-31.8,19.9-55.5
	c0-23.9-6.6-42.6-19.9-56S292.4,51.7,267,51.7h-35.6v151.6H267C292.3,203.3,311.6,196.7,324.9,183.4z"/>
<path class="st0" d="M766.4,214.1c-9.1-4.2-16.2-10-21.5-17.4c-5.2-7.5-8-15.8-8.3-25h19.2c0.9,8.8,4.8,16.6,11.7,23.3
	s17.1,10,30.4,10c12.3,0,22.1-3.2,29.2-9.5c7.2-6.3,10.8-14.3,10.8-24.1c0-7.8-2-14.1-6-18.9c-4-4.8-8.9-8.3-14.8-10.7
	c-5.9-2.3-14-4.9-24.4-7.7c-12.1-3.3-21.8-6.5-28.9-9.6c-7.1-3.1-13.2-8-18.2-14.6s-7.5-15.5-7.5-26.8c0-9.4,2.4-17.7,7.3-25.1
	c4.9-7.4,11.7-13.1,20.5-17.3s19-6.2,30.4-6.2c16.8,0,30.4,4.1,40.7,12.3s16.2,18.9,17.8,31.9H835c-1.2-7.5-5.3-14.1-12.2-19.9
	s-16.3-8.7-28.1-8.7c-10.9,0-20,2.9-27.3,8.7s-10.9,13.7-10.9,23.8c0,7.6,2,13.8,6,18.5s9,8.2,14.9,10.7c6,2.4,14.1,5,24.3,7.8
	c11.8,3.3,21.3,6.5,28.6,9.8c7.3,3.2,13.4,8.1,18.5,14.7c5,6.6,7.5,15.4,7.5,26.5c0,8.5-2.3,16.6-6.8,24.2
	c-4.5,7.6-11.2,13.8-20,18.5s-19.4,7-31.7,7C786,220.3,775.5,218.2,766.4,214.1z"/>
<path class="st0" d="M997.9,36.6v15.1h-50.4v166.7h-18.2V51.7h-50.7V36.6H997.9z"/>
<path class="st0" d="M1123.5,218.4l-45-75.9H1045v75.9h-18.2V36.6h54.6c20.3,0,35.7,4.9,46.1,14.6c10.5,9.7,15.7,22.4,15.7,38.2
	c0,13.2-3.8,24.4-11.3,33.7s-18.7,15.3-33.4,18.1l46.8,77.2L1123.5,218.4L1123.5,218.4z M1045,127.6h36.7c14.2,0,24.9-3.5,32.1-10.4
	s10.8-16.2,10.8-27.8c0-12-3.5-21.2-10.4-27.7s-17.9-9.8-32.8-9.8H1045V127.6z"/>
<path class="st0" d="M1197.6,51.6v67.9h68.9v15.1h-68.9v68.9h76.7v15.1h-94.9v-182h94.9v15.1h-76.7V51.6z"/>
<path class="st0" d="M1415.5,174h-82.7l-15.9,43.2h-19.2L1364,37.8h20.5l66,179.4h-19.2L1415.5,174z M1410,159l-35.9-98.3
	l-35.9,98.3H1410z"/>
<path class="st0" d="M1657.3,37.8v179.4h-18.2V73.9l-64,143.3h-13.3l-64-142.7v142.7h-18.2V37.8h19.2l69.4,155.5l69.4-155.5
	C1637.6,37.8,1657.3,37.8,1657.3,37.8z"/>
<g>
	<path class="st1" d="M635.8,67.9c0-3.2-0.8-4.9-3.7-6.5c-35.5-20-71.1-39.9-106.5-60.1c-2.8-1.7-5-1.8-8-0.1
		c-35.7,20.2-71.3,40.2-107.1,60.2c-2.7,1.6-3.4,3.3-3.4,6.2c0.2,19.9,0.1,40,0.1,60c0,19.9,0.1,39.6-0.1,59.6
		c0,3.4,0.9,5.2,3.9,6.8c35.4,19.9,70.8,39.8,106.1,59.7c3.1,1.8,5.3,1.8,8.5,0.1c35.4-20.1,71-40,106.6-60c2.8-1.7,3.7-3.4,3.7-6.6
		C635.6,147.5,635.6,107.8,635.8,67.9z"/>
	<g>
		<g>
			<path class="st0" d="M563.1,124.7l-63.9-36.9c-2.3-1.4-5.1,0.3-5.1,3v73.8c0,2.6,2.8,4.3,5.1,3l63.9-36.9
				C565.3,129.3,565.3,126,563.1,124.7z"/>
		</g>
		<g class="st2">
			<path class="st0" d="M563.1,124.7l-63.9-36.9c-2.3-1.4-5.1,0.3-5.1,3v73.8c0,2.6,2.8,4.3,5.1,3l63.9-36.9
				C565.3,129.3,565.3,126,563.1,124.7z"/>
		</g>
	</g>
</g>
</svg>
