<?xml version="1.0" encoding="utf-8"?>
<!-- Generator: Adobe Illustrator 25.2.3, SVG Export Plug-In . SVG Version: 6.00 Build 0)  -->
<svg version="1.1" id="Layer_1" xmlns="http://www.w3.org/2000/svg" xmlns:xlink="http://www.w3.org/1999/xlink" x="0px" y="0px"
	 viewBox="0 0 1455.9 274.1" style="enable-background:new 0 0 1455.9 274.1;" xml:space="preserve">
<style type="text/css">
	.st0{fill:#FFFFFF;}
	.st1{fill:#F05452;}
	.st2{fill:#FFFFFF;stroke:#FFFFFF;stroke-width:10;stroke-miterlimit:10;}
</style>
<g>
	<rect x="77" y="87.4" class="st0" width="104.1" height="109.8"/>
	<path class="st1" d="M0.1,137.1c0-21.5,0.1-43-0.1-64.4c0-3.2,0.8-5,3.7-6.7c38.4-21.5,76.7-43,115-64.7c3.2-1.8,5.5-1.7,8.6,0.1
		c38.1,21.6,76.2,43,114.5,64.4c3.1,1.7,4,3.6,4,7c-0.1,42.8-0.1,85.6,0,128.4c0,3.4-0.9,5.3-4,7.1c-38.2,21.4-76.4,42.8-114.5,64.4
		c-3.4,1.9-5.8,1.8-9.1-0.1c-38-21.5-75.9-42.9-114-64.2C1,206.7,0,204.7,0,201.1C0.2,179.7,0.1,158.4,0.1,137.1z M93.8,136.8
		c0,12.1,0,24.3,0,36.4c0,6,2.7,7.6,7.8,4.7c21.3-12.1,42.5-24.1,63.8-36.3c5.1-2.9,5.1-6.3,0-9.2c-21.2-12.1-42.5-24.2-63.8-36.3
		c-5.1-2.9-7.8-1.3-7.9,4.7C93.7,112.8,93.8,124.8,93.8,136.8z"/>
</g>
<path id="S" class="st2" d="M358.6,210.7c-7.3-3.5-12.9-8.2-16.8-14c-3.5-5.1-5.7-10.5-6.7-16.3c-0.2-1.3,0.8-2.5,2.1-2.5h0.1
	c1,0,1.9,0.7,2.1,1.7c0.9,4.6,2.6,9.1,5.3,13.7c3,5.1,7.8,9.5,14.3,13.2s14.9,5.5,25.2,5.5c8.2,0,15.5-1.6,21.8-4.7
	c6.3-3.1,11.1-7.4,14.5-12.6c3.4-5.3,5.1-11.1,5.1-17.6c0-8.4-1.9-15-5.7-19.9c-3.8-4.9-8.5-8.5-14.2-10.9
	c-5.6-2.3-13.2-4.8-22.8-7.3c-10-2.6-18-5.3-24-7.9c-6-2.6-11.1-6.7-15.3-12.2s-6.3-12.9-6.3-22.3c0-6.7,1.9-13.1,5.6-19
	S352,66.9,359,63.4c7-3.5,14.9-5.3,23.9-5.3c9.1,0,16.9,1.6,23.5,4.8s11.8,7.3,15.5,12.2c3.1,4.1,5.3,8.3,6.7,12.8
	c0.4,1.4-0.6,2.7-2.1,2.7l0,0c-0.9,0-1.8-0.6-2-1.5c-1.1-3.8-3.1-7.6-6-11.5c-3.2-4.4-7.9-8.1-13.9-11.1S391.3,62,382.8,62
	c-7.5,0-14.3,1.4-20.6,4.3s-11.2,6.9-15,12.1c-3.7,5.2-5.6,11.3-5.6,18.2c0,8.5,1.9,15.3,5.8,20.3c3.9,5.1,8.7,8.8,14.4,11.2
	s13.3,4.9,22.9,7.4c10,2.6,17.9,5.2,23.9,7.8c5.9,2.6,11,6.5,15.1,11.9s6.2,12.6,6.2,21.9c0,6.5-1.7,12.7-5.2,18.7
	s-8.6,10.9-15.5,14.6s-15.2,5.6-25,5.6C374.4,216,365.8,214.3,358.6,210.7z"/>
<path id="T" class="st2" d="M563.3,61.6L563.3,61.6c0,1.1-0.9,2-2,2h-41.1c-1.1,0-2,0.9-2,2v147c0,1.1-0.9,2-2,2h-0.4
	c-1.1,0-2-0.9-2-2v-147c0-1.1-0.9-2-2-2h-41.1c-1.1,0-2-0.9-2-2l0,0c0-1.1,0.9-2,2-2h90.6C562.4,59.6,563.3,60.5,563.3,61.6z"/>
<path id="R" class="st2" d="M693.7,213.4L653.6,148c-0.4-0.6-1.1-1.1-1.9-1.1h-3h-32.6c-1.2,0-2.2,1-2.2,2.2v63.1
	c0,1.2-1,2.2-2.2,2.2l0,0c-1.2,0-2.2-1-2.2-2.2V61.8c0-1.2,1-2.2,2.2-2.2h36.5c17,0,29.7,3.9,38,11.7s12.4,18.4,12.4,31.9
	c0,12.5-3.5,22.4-10.6,29.9c-6.4,6.8-15.4,11.2-26.8,13c-1.5,0.2-2.4,2-1.5,3.3l38,61.8c0.9,1.5-0.2,3.4-1.9,3.4h-0.3
	C694.8,214.5,694.1,214.1,693.7,213.4z M648.8,142.8c15.1,0,26.4-3.6,34-10.8c7.5-7.2,11.3-16.8,11.3-28.8
	c0-26.1-15.2-39.2-45.8-39.2h-32.1c-1.2,0-2.2,1-2.2,2.2v74.4c0,1.2,1,2.2,2.2,2.2H648.8z"/>
<path id="E" class="st2" d="M755,65.5V133c0,1.1,0.9,2,2,2h60.7c1.1,0,2,0.9,2,2l0,0c0,1.1-0.9,2-2,2H757c-1.1,0-2,0.9-2,2v67.5
	c0,1.1,0.9,2,2,2h67.3c1.1,0,2,0.9,2,2l0,0c0,1.1-0.9,2-2,2h-71.7c-1.1,0-2-0.9-2-2V61.6c0-1.1,0.9-2,2-2h71.7c1.1,0,2,0.9,2,2l0,0
	c0,1.1-0.9,2-2,2H757C755.9,63.6,755,64.4,755,65.5z"/>
<path id="A" class="st2" d="M963.5,169.5h-73.3c-1,0-1.9,0.6-2.2,1.5l-15.1,39.6c-0.3,0.9-1.2,1.5-2.2,1.5l0,0
	c-1.7,0-2.8-1.7-2.2-3.2l55.6-145.5c0.3-0.9,1.2-1.5,2.2-1.5h1.2c1,0,1.9,0.6,2.2,1.5L985,209c0.6,1.6-0.5,3.2-2.2,3.2l0,0
	c-1,0-1.9-0.6-2.2-1.5L965.7,171C965.4,170.1,964.5,169.5,963.5,169.5z M962.4,162.3L929,74.8c-0.8-2-3.6-2-4.4,0l-33.3,87.6
	c-0.6,1.6,0.5,3.2,2.2,3.2h66.6C961.8,165.5,963,163.9,962.4,162.3z"/>
<path id="M" class="st2" d="M1172.8,64v146.1c0,1.2-1,2.2-2.2,2.2l0,0c-1.2,0-2.2-1-2.2-2.2V82.9c0-2.4-3.2-3.1-4.2-0.9l-57.5,129
	c-0.3,0.8-1.1,1.3-2,1.3h-1.6c-0.9,0-1.7-0.5-2-1.3l-57.7-129c-1-2.2-4.2-1.5-4.2,0.9v127.2c0,1.2-1,2.2-2.2,2.2l0,0
	c-1.2,0-2.2-1-2.2-2.2V64c0-1.2,1-2.2,2.2-2.2h0.8c0.9,0,1.7,0.5,2,1.3l62.1,138.9c0.8,1.7,3.2,1.7,4,0l61.9-138.9
	c0.3-0.8,1.1-1.3,2-1.3h0.8C1171.8,61.8,1172.8,62.8,1172.8,64z"/>
<path id="E_1_" class="st2" d="M1237.9,65.5V133c0,1.1,0.9,2,2,2h60.7c1.1,0,2,0.9,2,2l0,0c0,1.1-0.9,2-2,2h-60.7c-1.1,0-2,0.9-2,2
	v67.5c0,1.1,0.9,2,2,2h67.3c1.1,0,2,0.9,2,2l0,0c0,1.1-0.9,2-2,2h-71.7c-1.1,0-2-0.9-2-2V61.6c0-1.1,0.9-2,2-2h71.7c1.1,0,2,0.9,2,2
	l0,0c0,1.1-0.9,2-2,2h-67.3C1238.8,63.6,1237.9,64.4,1237.9,65.5z"/>
<path id="R_1_" class="st2" d="M1446.2,213.4l-40.1-65.4c-0.4-0.6-1.1-1.1-1.9-1.1h-2.9h-32.6c-1.2,0-2.2,1-2.2,2.2v63.1
	c0,1.2-1,2.2-2.2,2.2l0,0c-1.2,0-2.2-1-2.2-2.2V61.8c0-1.2,1-2.2,2.2-2.2h36.5c17,0,29.7,3.9,37.9,11.7c8.3,7.8,12.4,18.4,12.4,31.9
	c0,12.5-3.5,22.4-10.6,29.9c-6.4,6.8-15.4,11.2-26.8,13c-1.6,0.2-2.4,2-1.5,3.3l38,61.8c0.9,1.5-0.2,3.4-1.9,3.4h-0.3
	C1447.3,214.5,1446.6,214.1,1446.2,213.4z M1401.3,142.8c15.1,0,26.4-3.6,34-10.8s11.3-16.8,11.3-28.8c0-26.1-15.2-39.2-45.8-39.2
	h-32.1c-1.2,0-2.2,1-2.2,2.2v74.4c0,1.2,1,2.2,2.2,2.2H1401.3z"/>
</svg>
